#N canvas 2 137 1173 941 12;
#X obj 406 26 inlet;
#X text 457 27 < - ats-struct pointer;
#X obj 438 140 getsize ats-data-template tracks;
#X obj 406 70 pointer;
#X text 478 162 see if this voice is in range;
#X obj 11 914 outlet~;
#X obj 375 305 element ats-data-template tracks;
#X obj 17 16 inlet;
#X obj 102 417 element ats-track-template points;
#X obj 375 274 f \$1;
#X obj 406 111 t p p;
#X obj 375 248 t b p;
#X obj 375 223 spigot 0;
#X obj 438 223 switch~ 0;
#X obj 407 363 getsize ats-track-template points;
#X obj 407 388 s \$0-npoints;
#X obj 375 330 t p p;
#X obj 147 443 element ats-track-template points;
#X obj 147 468 get ats-point-template freq amp;
#X obj 102 495 get ats-point-template freq amp;
#X obj 136 375 clip 0 0;
#X obj 102 317 clip 0 0;
#X obj 155 262 r \$0-npoints;
#X obj 155 287 - 1;
#X obj 136 350 + 1;
#X obj 102 240 t f f;
#X obj 102 214 change;
#X obj 102 189 int;
#X obj 70 150 t f f;
#X obj 10 861 osc~;
#X obj 11 888 *~;
#X obj 70 532 wrap;
#X obj 70 557 t f f;
#X obj 70 607 *;
#X obj 125 662 -;
#X msg 125 637 1 \$1;
#X obj 125 711 *;
#X obj 159 711 *;
#X obj 97 607 *;
#X obj 97 758 +;
#X obj 10 785 +;
#X floatatom 333 305 5 0 0 0 - - -;
#X floatatom 152 400 5 0 0 0 - - -;
#X floatatom 96 352 5 0 0 0 - - -;
#X floatatom 176 316 5 0 0 0 - - -;
#X floatatom 473 194 5 0 0 0 - - -;
#X obj 483 107 print \$0-\$1-pointer;
#X obj 438 166 > \$1;
#X connect 0 0 3 0;
#X connect 2 0 47 0;
#X connect 2 0 45 0;
#X connect 3 0 10 0;
#X connect 3 0 46 0;
#X connect 6 0 16 0;
#X connect 7 0 28 0;
#X connect 8 0 19 0;
#X connect 9 0 6 0;
#X connect 9 0 41 0;
#X connect 10 0 12 0;
#X connect 10 1 2 0;
#X connect 11 0 9 0;
#X connect 11 1 6 1;
#X connect 12 0 11 0;
#X connect 14 0 15 0;
#X connect 16 0 17 1;
#X connect 16 0 8 1;
#X connect 16 1 14 0;
#X connect 17 0 18 0;
#X connect 18 0 36 1;
#X connect 18 1 37 1;
#X connect 19 0 33 1;
#X connect 19 1 38 1;
#X connect 20 0 17 0;
#X connect 20 0 42 0;
#X connect 21 0 8 0;
#X connect 21 0 43 0;
#X connect 22 0 23 0;
#X connect 23 0 21 2;
#X connect 23 0 20 2;
#X connect 23 0 44 0;
#X connect 24 0 20 0;
#X connect 25 0 21 0;
#X connect 25 1 24 0;
#X connect 26 0 25 0;
#X connect 27 0 26 0;
#X connect 28 0 31 0;
#X connect 28 1 27 0;
#X connect 29 0 30 0;
#X connect 30 0 5 0;
#X connect 31 0 32 0;
#X connect 32 0 33 0;
#X connect 32 0 38 0;
#X connect 32 1 35 0;
#X connect 33 0 40 0;
#X connect 34 0 36 0;
#X connect 34 0 37 0;
#X connect 35 0 34 0;
#X connect 36 0 40 1;
#X connect 37 0 39 1;
#X connect 38 0 39 0;
#X connect 39 0 30 1;
#X connect 40 0 29 0;
#X connect 47 0 12 1;
#X connect 47 0 13 0;
