#N canvas 506 137 1173 941 12;
#X text 447 140 < - ats-struct pointer;
#X obj 370 119 pointer;
#X text 478 261 see if this voice is in range;
#X obj 12 174 outlet~;
#X obj 375 512 element ats-data-template tracks;
#X obj 370 33 inlet;
#X obj 375 481 f \$1;
#X obj 375 396 t b p;
#X obj 147 627 get ats-point-template freq amp;
#X obj 11 121 osc~;
#X obj 12 148 *~;
#X obj 438 265 > \$1;
#X obj 147 602 element ats-track-template points;
#X obj 438 190 get ats-data-template track_count frame_count;
#X obj 750 239 s \$0-npoints;
#X floatatom 449 221 5 0 0 0 - - -;
#X obj 470 320 s \$0-active;
#X obj 990 221 r \$0-active;
#X floatatom 1058 262 5 0 0 0 - - -;
#X obj 228 469 array size \$0-amp;
#X obj 219 499 array size \$0-freq;
#X obj 438 372 pack f f;
#X obj 242 394 bang;
#X text 690 18 using tables.. if we could just read struct members
at audio rate we wouldn't need to..;
#X msg 242 421 1;
#X obj 438 397 s \$0-active_points;
#X obj 491 346 r \$0-npoints;
#X obj 147 203 r \$0-active_points;
#X text 39 464 fill tables;
#X msg 179 469 0;
#X obj 147 499 until;
#X obj 147 524 f 0;
#X obj 180 524 + 1;
#X obj 147 549 t f f;
#X obj 591 680 tabread4~;
#X obj 147 257 route 1 0;
#X text 259 366 set size;
#X text 248 576 read values;
#X obj 147 676 tabwrite \$0-freq;
#X obj 361 673 tabwrite \$0-amp;
#X obj 438 293 t f f;
#X obj 328 329 pointer;
#X obj 370 147 t p p;
#X obj 147 282 t f b f b;
#X obj 990 261 switch~;
#X obj 689 51 array define -yrange 0 1 \$0-amp;
#X obj 704 80 array define -yrange 0 20000 \$0-freq;
#X obj 13 12 inlet~;
#X obj 370 62 route pointer;
#X obj 54 119 tabread4~ \$0-amp;
#X obj 12 70 tabread4~ \$0-freq;
#X floatatom 760 216 5 0 0 0 - - -;
#X connect 1 0 42 0;
#X connect 4 0 12 1;
#X connect 5 0 48 0;
#X connect 6 0 4 0;
#X connect 7 0 6 0;
#X connect 7 1 4 1;
#X connect 8 0 38 0;
#X connect 8 1 39 0;
#X connect 9 0 10 0;
#X connect 10 0 3 0;
#X connect 11 0 40 0;
#X connect 12 0 8 0;
#X connect 13 0 11 0;
#X connect 13 0 15 0;
#X connect 13 1 14 0;
#X connect 13 1 51 0;
#X connect 17 0 18 0;
#X connect 17 0 44 0;
#X connect 21 0 25 0;
#X connect 22 0 24 0;
#X connect 24 0 19 0;
#X connect 24 0 20 0;
#X connect 26 0 21 1;
#X connect 27 0 35 0;
#X connect 29 0 31 1;
#X connect 30 0 31 0;
#X connect 31 0 32 0;
#X connect 31 0 33 0;
#X connect 32 0 31 1;
#X connect 33 0 12 0;
#X connect 33 1 38 1;
#X connect 33 1 39 1;
#X connect 35 0 43 0;
#X connect 35 1 22 0;
#X connect 40 0 21 0;
#X connect 40 1 16 0;
#X connect 41 0 7 0;
#X connect 42 0 13 0;
#X connect 42 1 41 1;
#X connect 43 0 30 0;
#X connect 43 1 29 0;
#X connect 43 2 19 0;
#X connect 43 2 20 0;
#X connect 43 3 41 0;
#X connect 47 0 50 0;
#X connect 47 0 49 0;
#X connect 48 0 1 0;
#X connect 49 0 10 1;
#X connect 50 0 9 0;
