#N canvas 2 74 1394 645 12;
#X obj 998 155 append ats-data-template x y;
#X obj 998 125 unpack f f;
#X obj 998 179 pointer;
#X msg 225 306 \$1;
#X obj 225 334 setsize ats-data-template tracks;
#X obj 13 6 inlet;
#X obj 1177 24 inlet;
#X text 1228 24 <- parent inlet;
#X text 65 6 <- ats info inlet;
#N canvas 2 74 403 125 ats-point-template 0;
#X obj 10 18 struct ats-point-template float freq float amp float noise_energy
float y;
#X restore 538 20 pd ats-point-template;
#N canvas 2 74 484 191 ats-track-template 0;
#X obj 5 7 struct ats-track-template float x float y array points ats-point-template
;
#X text 49 96 plot args: rgbcolor \, linewith \, x \, y \, spacing
;
#X obj 6 58 plot points 0 1 0 0 5;
#X restore 538 65 pd ats-track-template;
#N canvas 2 74 477 514 ats-data-template 0;
#X obj 2 12 struct ats-data-template array tracks ats-track-template
array noise ats-noise-template float x float y float file_type float
sample_rate float track_count float frame_count float dur_sec float
amp_max float freq_max float frame_samps float window_samps;
#X obj 8 172 drawnumber file_type 0 0 0 file_type=;
#X obj 8 194 drawnumber sample_rate 0 15 0 sample_rate=;
#X obj 8 240 drawnumber frame_count 0 45 0 frame_count=;
#X obj 8 217 drawnumber track_count 0 30 0 track_count=;
#X obj 8 262 drawnumber frame_samps 0 60 0 frame_samps=;
#X obj 8 285 drawnumber window_samps 0 75 0 window_samps=;
#X obj 9 308 drawnumber freq_max 0 90 0 freq_max=;
#X obj 9 331 drawnumber amp_max 0 105 0 amp_max=;
#X obj 9 354 drawnumber dur_sec 0 120 0 dur_sec=;
#X text 8 417 axis;
#X obj 100 124 plot noise;
#X obj 8 125 plot tracks;
#X obj 10 445 drawpolygon 9 1 0 0 0 500;
#X obj 10 469 drawpolygon 9 1 0 500 2000 500;
#X restore 538 88 pd ats-data-template;
#X obj 37 570 pointer;
#X obj 37 518 r \$0-sendp;
#X obj 37 595 outlet;
#X obj 376 178 s \$0-sendp;
#X obj 998 206 s \$0-struct-ptr;
#X obj 83 542 r \$0-struct-ptr;
#X obj 446 307 r \$0-struct-ptr;
#X obj 297 153 s \$0-ftype;
#X obj 952 38 r \$0-ftype;
#X obj 953 268 set ats-data-template file_type;
#N canvas 2 74 1383 777 other 0;
#X obj 17 18 inlet;
#X obj 245 675 r \$0-struct-ptr;
#X obj 17 702 set ats-data-template sample_rate;
#X obj 17 43 route sample_rate frame_count dur_sec amp_max freq_max
frame_samps window_samps, f 81;
#X obj 325 621 r \$0-struct-ptr;
#X obj 97 648 set ats-data-template frame_count;
#X obj 378 559 r \$0-struct-ptr;
#X obj 458 506 r \$0-struct-ptr;
#X obj 178 586 set ats-data-template dur_sec;
#X obj 258 532 set ats-data-template amp_max;
#X obj 546 445 r \$0-struct-ptr;
#X obj 339 471 set ats-data-template freq_max;
#X obj 647 382 r \$0-struct-ptr;
#X obj 419 410 set ats-data-template frame_samps;
#X obj 735 329 r \$0-struct-ptr;
#X obj 500 356 set ats-data-template window_samps;
#X obj 526 105 s \$0-win_samps;
#X connect 0 0 3 0;
#X connect 1 0 2 1;
#X connect 3 0 2 0;
#X connect 3 1 5 0;
#X connect 3 2 8 0;
#X connect 3 3 9 0;
#X connect 3 4 11 0;
#X connect 3 5 13 0;
#X connect 3 6 15 0;
#X connect 3 6 16 0;
#X connect 4 0 5 1;
#X connect 6 0 8 1;
#X connect 7 0 9 1;
#X connect 10 0 11 1;
#X connect 12 0 13 1;
#X connect 14 0 15 1;
#X restore 455 155 pd other;
#X obj 248 266 set ats-data-template track_count frame_count;
#X obj 248 230 unpack f f;
#X obj 560 230 r \$0-struct-ptr;
#X obj 13 57 spigot 0;
#X obj 66 28 r \$0-haveptr;
#X obj 1177 73 t b p;
#X msg 1229 119 1;
#X obj 1229 144 s \$0-haveptr;
#X obj 297 125 route file_type dumping;
#X obj 376 154 sel 0;
#X text 459 179 send struct out when it is totally built (dumping =
0);
#N canvas 2 74 488 215 ats-noise-template 0;
#X obj 16 23 struct ats-noise-template array energy ats-noise-frame-band-template
;
#X obj 16 74 plot energy;
#X restore 538 42 pd ats-noise-template;
#X obj 952 63 t f f b;
#X obj 948 418 setsize ats-data-template noise;
#X msg 954 331 0;
#X obj 908 301 sel 3 4;
#X msg 908 341 25;
#X obj 202 374 t a a;
#X obj 908 419 != 0;
#X obj 908 444 s \$0-hasnoise;
#X obj 908 378 t f f;
#X obj 234 405 spigot 0;
#X obj 287 381 r \$0-hasnoise;
#N canvas 2 74 824 545 noisealloc 0;
#X obj 29 23 inlet;
#X obj 451 213 r \$0-struct-ptr;
#X obj 237 242 element ats-data-template noise;
#X obj 29 54 unpack f f;
#X obj 29 131 until;
#X msg 71 131 0;
#X obj 29 77 t b b;
#X msg 29 102 25;
#X obj 29 156 f 0;
#X obj 60 157 + 1;
#X obj 29 185 t b f;
#X obj 49 216 f 0;
#X obj 9 275 setsize ats-noise-template energy;
#X connect 0 0 3 0;
#X connect 1 0 2 1;
#X connect 2 0 12 1;
#X connect 3 0 6 0;
#X connect 3 1 11 1;
#X connect 4 0 8 0;
#X connect 5 0 8 1;
#X connect 6 0 7 0;
#X connect 6 1 5 0;
#X connect 7 0 4 0;
#X connect 8 0 9 0;
#X connect 8 0 10 0;
#X connect 9 0 8 1;
#X connect 10 0 11 0;
#X connect 10 1 2 0;
#X connect 11 0 12 0;
#X restore 234 433 pd noisealloc;
#N canvas 2 74 875 609 pointalloc 0;
#X obj 25 17 inlet;
#X obj 67 326 setsize ats-track-template points;
#X obj 295 298 element ats-data-template tracks;
#X obj 25 50 unpack f f;
#X obj 67 215 f 0;
#X obj 25 113 until;
#X msg 65 112 0;
#X obj 25 150 f 0;
#X obj 52 150 + 1;
#X obj 25 173 t b f;
#X obj 25 73 t f b;
#X obj 516 270 r \$0-struct-ptr;
#X connect 0 0 3 0;
#X connect 2 0 1 1;
#X connect 3 0 10 0;
#X connect 3 1 4 1;
#X connect 4 0 1 0;
#X connect 5 0 7 0;
#X connect 6 0 7 1;
#X connect 7 0 8 0;
#X connect 7 0 9 0;
#X connect 8 0 7 1;
#X connect 9 0 4 0;
#X connect 9 1 2 0;
#X connect 10 0 5 0;
#X connect 10 1 6 0;
#X connect 11 0 2 1;
#X restore 202 469 pd pointalloc;
#N canvas 2 74 1916 1004 pointwrite 0;
#X obj 13 15 inlet;
#X obj 448 404 element ats-track-template points;
#X msg 448 320 \$2;
#X obj 45 236 t f f;
#X obj 643 347 element ats-data-template tracks;
#X msg 643 319 \$1;
#X obj 13 45 t a a a;
#X obj 864 321 r \$0-struct-ptr;
#X obj 46 347 / -32;
#X obj 46 399 + 500;
#X obj 78 371 r \$0-pheight;
#X obj 78 320 r \$0-pydiv;
#X obj 117 481 set ats-point-template y freq amp noise_energy;
#X obj 14 181 unpack f f f f f;
#X connect 0 0 6 0;
#X connect 1 0 12 4;
#X connect 2 0 1 0;
#X connect 3 0 8 0;
#X connect 3 1 12 1;
#X connect 4 0 1 1;
#X connect 5 0 4 0;
#X connect 6 0 13 0;
#X connect 6 1 2 0;
#X connect 6 2 5 0;
#X connect 7 0 4 1;
#X connect 8 0 9 0;
#X connect 9 0 12 0;
#X connect 10 0 9 1;
#X connect 11 0 8 1;
#X connect 13 2 3 0;
#X connect 13 3 12 2;
#X connect 13 4 12 3;
#X restore 13 125 pd pointwrite;
#X obj 202 140 t a a a;
#X text 943 10 setup the initial struct;
#X obj 1162 385 r \$0-struct-ptr;
#X obj 13 88 route track_point noise_point track_count;
#N canvas 2 74 1397 876 noisewrite 0;
#X obj 13 15 inlet;
#X msg 338 301 \$2;
#X msg 658 127 \$1;
#X obj 872 208 r \$0-struct-ptr;
#X obj 658 235 element ats-data-template noise;
#X obj 431 534 element ats-noise-template energy;
#X msg 13 121 \$3;
#X msg 747 283 0 100 200 300 400 510 630 770 920 1080 1270 1480 1720
2000 2320 2700 3150 3700 4400 5300 6400 7700 9500 12000 15500 20000
;
#X obj 747 338 list;
#X obj 747 363 list split;
#X obj 13 45 t a a a;
#X obj 658 159 t f b f;
#X obj 780 417 s \$0-noise-band;
#X msg 780 389 \$1 \$2;
#X obj 338 336 t f f;
#X text 106 540 x;
#X obj 281 412 r \$0-noise-band;
#X obj 281 437 unpack f f;
#X obj 281 491 / -32;
#X obj 348 489 / -32;
#X obj 281 583 + 1250;
#X obj 347 584 + 1250;
#X obj 14 638 set ats-noise-frame-band-template energy c x1 x4 x2 x3
y1 y2 y3 y4;
#X obj 45 393 t f f f;
#X obj 13 210 t f f;
#X obj 56 422 * 10;
#X obj 90 421 * 100;
#X obj 57 446 +;
#X obj 40 476 +;
#X obj 45 245 /;
#X obj 63 219 * 0.04;
#X obj 63 193 r \$0-win_samps;
#X text 118 222 atsa variance;
#X obj 40 509 + 999;
#X obj 45 320 clip 0 1;
#X obj 45 369 int;
#X obj 45 345 * -9;
#X obj 45 267 sqrt;
#X obj 45 295 * 100;
#X obj 320 522 r \$0-pheight;
#X obj 380 446 r \$0-pydiv;
#X obj 320 547 * 2;
#X obj 127 542 * 5;
#X obj 193 571 + 5;
#X connect 0 0 10 0;
#X connect 1 0 14 0;
#X connect 2 0 11 0;
#X connect 3 0 4 1;
#X connect 4 0 5 1;
#X connect 5 0 22 10;
#X connect 6 0 24 0;
#X connect 7 0 8 0;
#X connect 8 0 9 0;
#X connect 9 1 13 0;
#X connect 10 0 6 0;
#X connect 10 1 1 0;
#X connect 10 2 2 0;
#X connect 11 0 4 0;
#X connect 11 1 7 0;
#X connect 11 2 9 1;
#X connect 13 0 12 0;
#X connect 14 0 42 0;
#X connect 14 1 5 0;
#X connect 16 0 17 0;
#X connect 17 0 18 0;
#X connect 17 1 19 0;
#X connect 18 0 20 0;
#X connect 19 0 21 0;
#X connect 20 0 22 6;
#X connect 20 0 22 7;
#X connect 21 0 22 8;
#X connect 21 0 22 9;
#X connect 23 0 28 0;
#X connect 23 1 25 0;
#X connect 23 2 26 0;
#X connect 24 0 22 0;
#X connect 24 1 29 0;
#X connect 25 0 27 0;
#X connect 26 0 27 1;
#X connect 27 0 28 1;
#X connect 28 0 33 0;
#X connect 29 0 37 0;
#X connect 30 0 29 1;
#X connect 31 0 30 0;
#X connect 33 0 22 1;
#X connect 34 0 36 0;
#X connect 35 0 23 0;
#X connect 36 0 35 0;
#X connect 37 0 38 0;
#X connect 38 0 34 0;
#X connect 39 0 41 0;
#X connect 40 0 19 1;
#X connect 40 0 18 1;
#X connect 41 0 20 1;
#X connect 41 0 21 1;
#X connect 42 0 22 2;
#X connect 42 0 22 3;
#X connect 42 0 43 0;
#X connect 43 0 22 4;
#X connect 43 0 22 5;
#X restore 107 169 pd noisewrite;
#N canvas 2 74 601 196 ats-noise-frame-band-template 0;
#X obj 16 23 struct ats-noise-frame-band-template float energy float
c float x1 float y1 float x2 float y2 float x3 float y3 float x4 float
y4, f 50;
#X obj 16 86 filledpolygon -x c c 1 x1 y1 x2 y2 x3 y3 x4 y4;
#X restore 716 22 pd ats-noise-frame-band-template;
#X msg 998 101 0 0;
#X obj 547 419 loadbang;
#X msg 547 448 500;
#X obj 547 593 s \$0-pheight;
#X obj 572 565 s \$0-pydiv;
#X obj 572 531 /;
#X obj 572 478 t b f;
#X msg 572 503 -20000;
#X connect 0 0 2 0;
#X connect 1 0 0 0;
#X connect 1 1 0 1;
#X connect 2 0 16 0;
#X connect 2 0 21 1;
#X connect 3 0 4 0;
#X connect 5 0 26 0;
#X connect 6 0 28 0;
#X connect 12 0 14 0;
#X connect 13 0 12 0;
#X connect 17 0 12 1;
#X connect 18 0 4 1;
#X connect 20 0 35 0;
#X connect 24 0 23 0;
#X connect 24 1 23 1;
#X connect 25 0 23 2;
#X connect 26 0 52 0;
#X connect 27 0 26 1;
#X connect 28 0 29 0;
#X connect 28 1 0 2;
#X connect 29 0 30 0;
#X connect 31 0 19 0;
#X connect 31 1 32 0;
#X connect 31 2 22 0;
#X connect 32 0 15 0;
#X connect 35 0 38 0;
#X connect 35 1 21 0;
#X connect 35 2 55 0;
#X connect 37 0 43 0;
#X connect 38 0 39 0;
#X connect 38 1 39 0;
#X connect 38 2 37 0;
#X connect 39 0 43 0;
#X connect 40 0 47 0;
#X connect 40 1 44 0;
#X connect 41 0 42 0;
#X connect 43 0 41 0;
#X connect 43 1 36 0;
#X connect 44 0 46 0;
#X connect 45 0 44 1;
#X connect 49 0 40 0;
#X connect 49 1 3 0;
#X connect 49 2 24 0;
#X connect 51 0 36 1;
#X connect 52 0 48 0;
#X connect 52 1 53 0;
#X connect 52 2 49 0;
#X connect 52 3 31 0;
#X connect 55 0 1 0;
#X connect 56 0 57 0;
#X connect 57 0 58 0;
#X connect 57 0 61 0;
#X connect 60 0 59 0;
#X connect 61 0 62 0;
#X connect 61 1 60 1;
#X connect 62 0 60 0;
