#N canvas 2 74 1145 652 12;
#X obj 95 581 outlet~;
#X obj 627 16 inlet;
#X obj 94 413 osc~;
#X obj 95 467 *~;
#X obj 174 12 r \$0-active;
#X floatatom 242 53 5 0 0 0 - - -;
#X obj 174 52 switch~;
#X obj 13 12 inlet~;
#X obj 217 153 tabread4~ \$0-amp;
#X obj 13 129 tabread4~ \$0-freq;
#X obj 695 215 s \$0-freq_mul;
#X obj 763 189 s \$0-freq_add;
#X obj 217 274 *~;
#X msg 234 211 \$1 10;
#X obj 234 236 vline~;
#X msg 32 184 \$1 10;
#X obj 32 209 vline~;
#X obj 32 159 r \$0-freq_mul;
#X obj 14 235 *~;
#N canvas 2 74 1154 853 build-data 0;
#X text 432 217 < - ats-struct pointer;
#X text 478 331 see if this voice is in range;
#X obj 399 580 element ats-data-template tracks;
#X obj 399 549 f \$1;
#X obj 375 466 t b p;
#X obj 438 335 > \$1;
#X obj 127 692 element ats-track-template points;
#X obj 438 260 get ats-data-template track_count frame_count;
#X obj 750 309 s \$0-npoints;
#X floatatom 449 291 5 0 0 0 - - -;
#X obj 470 390 s \$0-active;
#X obj 218 487 array size \$0-amp;
#X obj 209 517 array size \$0-freq;
#X obj 438 442 pack f f;
#X obj 232 412 bang;
#X text 572 68 using tables.. if we could just read struct members
at audio rate we wouldn't need to..;
#X msg 232 439 1;
#X obj 438 467 s \$0-active_points;
#X obj 491 416 r \$0-npoints;
#X obj 147 297 r \$0-active_points;
#X msg 159 559 0;
#X obj 127 589 until;
#X obj 127 614 f 0;
#X obj 160 614 + 1;
#X obj 127 639 t f f;
#X obj 147 327 route 1 0;
#X text 249 384 set size;
#X text 384 690 read values;
#X obj 127 766 tabwrite \$0-freq;
#X obj 279 772 tabwrite \$0-amp;
#X obj 438 363 t f f;
#X obj 328 399 pointer;
#X obj 370 217 t p p;
#X obj 147 352 t f b f b;
#X obj 571 101 array define -yrange 0 1 \$0-amp;
#X obj 586 130 array define -yrange 0 20000 \$0-freq;
#X floatatom 760 286 5 0 0 0 - - -;
#X obj 370 43 inlet;
#X obj 370 68 pointer;
#X obj 203 548 array size \$0-noise_energy;
#X obj 432 775 tabwrite \$0-noise_energy;
#X obj 127 721 get ats-point-template freq amp noise_energy;
#X obj 617 158 array define -yrange 0 0.25 \$0-noise_energy;
#X connect 2 0 6 1;
#X connect 3 0 2 0;
#X connect 4 0 3 0;
#X connect 4 1 2 1;
#X connect 5 0 30 0;
#X connect 6 0 41 0;
#X connect 7 0 5 0;
#X connect 7 0 9 0;
#X connect 7 1 8 0;
#X connect 7 1 36 0;
#X connect 13 0 17 0;
#X connect 14 0 16 0;
#X connect 16 0 11 0;
#X connect 16 0 12 0;
#X connect 16 0 39 0;
#X connect 18 0 13 1;
#X connect 19 0 25 0;
#X connect 20 0 22 1;
#X connect 21 0 22 0;
#X connect 22 0 23 0;
#X connect 22 0 24 0;
#X connect 23 0 22 1;
#X connect 24 0 6 0;
#X connect 24 1 28 1;
#X connect 24 1 29 1;
#X connect 24 1 40 1;
#X connect 25 0 33 0;
#X connect 25 1 14 0;
#X connect 30 0 13 0;
#X connect 30 1 10 0;
#X connect 31 0 4 0;
#X connect 32 0 7 0;
#X connect 32 1 31 1;
#X connect 33 0 21 0;
#X connect 33 1 20 0;
#X connect 33 2 11 0;
#X connect 33 2 12 0;
#X connect 33 2 39 0;
#X connect 33 3 31 0;
#X connect 37 0 38 0;
#X connect 38 0 32 0;
#X connect 41 0 28 0;
#X connect 41 1 29 0;
#X connect 41 2 40 0;
#X restore 628 247 pd build-data;
#X msg 74 260 \$1 10;
#X obj 74 285 vline~;
#X obj 74 235 r \$0-freq_add;
#X obj 56 311 +~;
#X obj 677 9 loadbang;
#X obj 343 154 tabread4~ \$0-noise_energy;
#X obj 167 458 *~;
#X obj 167 483 *~;
#X obj 96 556 +~;
#X obj 185 409 randi;
#X obj 250 275 r \$0-bw_scale;
#X obj 185 374 *~;
#X msg 250 302 \$1 10;
#X obj 250 327 vline~;
#X obj 893 128 s \$0-bw_scale;
#X msg 256 452 \$1 10;
#X obj 256 477 vline~;
#X obj 256 425 r \$0-noise_amp;
#X obj 167 508 *~;
#X obj 961 106 s \$0-noise_amp;
#X msg 677 36 freq_mul 1 \, freq_add 0 \, sine_amp 1 \, bw_scale 0.1
\, noise_amp 1;
#X obj 628 73 route pointer freq_mul freq_add sine_amp bw_scale noise_amp
;
#X obj 830 157 s \$0-sine_amp;
#X obj 234 186 r \$0-sine_amp;
#X connect 1 0 41 0;
#X connect 2 0 3 0;
#X connect 2 0 26 0;
#X connect 3 0 28 0;
#X connect 4 0 5 0;
#X connect 4 0 6 0;
#X connect 7 0 9 0;
#X connect 7 0 8 0;
#X connect 7 0 25 0;
#X connect 8 0 12 0;
#X connect 9 0 18 0;
#X connect 12 0 3 1;
#X connect 13 0 14 0;
#X connect 14 0 12 1;
#X connect 15 0 16 0;
#X connect 16 0 18 1;
#X connect 17 0 15 0;
#X connect 18 0 23 0;
#X connect 20 0 21 0;
#X connect 21 0 23 1;
#X connect 22 0 20 0;
#X connect 23 0 2 0;
#X connect 23 0 31 0;
#X connect 24 0 40 0;
#X connect 25 0 27 1;
#X connect 26 0 27 0;
#X connect 27 0 38 0;
#X connect 28 0 0 0;
#X connect 29 0 26 1;
#X connect 30 0 32 0;
#X connect 31 0 29 0;
#X connect 32 0 33 0;
#X connect 33 0 31 1;
#X connect 35 0 36 0;
#X connect 36 0 38 1;
#X connect 37 0 35 0;
#X connect 38 0 28 1;
#X connect 40 0 41 0;
#X connect 41 0 19 0;
#X connect 41 1 10 0;
#X connect 41 2 11 0;
#X connect 41 3 42 0;
#X connect 41 4 34 0;
#X connect 41 5 39 0;
#X connect 43 0 13 0;
