#N canvas 2 74 914 1003 12;
#X obj 22 26 inlet~;
#X obj 512 24 inlet;
#X obj 512 55 route pointer;
#X obj 544 173 getsize ats-data-template noise;
#X obj 559 368 switch~;
#X obj 546 393 s \$0-enabled;
#X obj 584 257 >= 25;
#X obj 546 256 == 0;
#X obj 546 291 ||;
#X obj 584 232 f \$1;
#X obj 546 200 t f b;
#X obj 546 316 != 1;
#X obj 391 429 element ats-data-template noise;
#X obj 391 347 t b p;
#X obj 391 373 f \$1;
#X obj 391 454 pointer;
#X obj 391 720 element ats-noise-template energy;
#X obj 391 523 getsize ats-noise-template energy;
#X obj 391 491 t p p;
#X obj 391 548 t f f;
#X obj 423 592 array size \$0-amp;
#X obj 555 591 array define -yrange 0 1 \$0-amp;
#X obj 391 618 t f b;
#X obj 391 643 until;
#X obj 391 671 f 0;
#X obj 425 671 + 1;
#X msg 435 643 0;
#X obj 391 745 get - y;
#X obj 391 696 t f f;
#X obj 391 873 tabwrite \$0-amp;
#X obj 391 322 spigot 0;
#X obj 444 293 r \$0-enabled;
#X obj 63 752 outlet~;
#X obj 98 448 noise~;
#X obj 162 538 *~;
#X obj 183 486 osc~;
#X msg 87 22 0 100 200 300 400 510 630 770 920 1080 1270 1480 1720
2000 2320 2700 3150 3700 4400 5300 6400 7700 9500 12000 15500 20000
;
#X obj 87 77 list;
#X obj 87 102 list split \$1;
#X msg 131 141 \$1 \$2;
#X obj 131 166 t a a;
#X obj 163 193 unpack f f;
#X obj 163 218 swap, f 10;
#X obj 163 243 -, f 10;
#X obj 163 298 / 2;
#X msg 131 191 \$1;
#X obj 131 340 +;
#X text 73 342 center;
#X obj 201 298 t f f;
#X floatatom 233 326 5 0 0 0 - - -;
#X text 253 299 width;
#X obj 131 365 t f f;
#X floatatom 181 398 5 0 0 0 - - -;
#X obj 62 618 *~;
#X obj 87 -4 loadbang;
#X obj 22 248 tabread~ \$0-amp;
#X obj 512 80 t p p p;
#X obj 558 133 s \$0-win_samps;
#X obj 558 108 get ats-data-template window_samps;
#X text 392 926 amp = (float)sqrt((p->buf[i] / ((p->winsize) * (float)ATSA_NOISE_VARIANCE)
) ) \;;
#X obj 391 821 /;
#X obj 409 795 * 0.04;
#X obj 409 769 r \$0-win_samps;
#X text 479 798 atsa variance;
#X obj 391 846 sqrt;
#X obj 98 486 bp~ 100 0.5;
#X connect 0 0 55 0;
#X connect 1 0 2 0;
#X connect 2 0 56 0;
#X connect 3 0 10 0;
#X connect 6 0 8 1;
#X connect 7 0 8 0;
#X connect 8 0 11 0;
#X connect 9 0 6 0;
#X connect 10 0 7 0;
#X connect 10 1 9 0;
#X connect 11 0 5 0;
#X connect 11 0 4 0;
#X connect 12 0 15 0;
#X connect 13 0 14 0;
#X connect 13 1 12 1;
#X connect 14 0 12 0;
#X connect 15 0 18 0;
#X connect 16 0 27 0;
#X connect 17 0 19 0;
#X connect 18 0 17 0;
#X connect 18 1 16 1;
#X connect 19 0 22 0;
#X connect 19 1 20 0;
#X connect 22 0 23 0;
#X connect 22 1 26 0;
#X connect 23 0 24 0;
#X connect 24 0 25 0;
#X connect 24 0 28 0;
#X connect 25 0 24 1;
#X connect 26 0 24 1;
#X connect 27 0 60 0;
#X connect 28 0 16 0;
#X connect 28 1 29 1;
#X connect 30 0 13 0;
#X connect 31 0 30 1;
#X connect 33 0 65 0;
#X connect 34 0 53 1;
#X connect 35 0 34 1;
#X connect 36 0 37 0;
#X connect 37 0 38 0;
#X connect 38 1 39 0;
#X connect 39 0 40 0;
#X connect 40 0 45 0;
#X connect 40 1 41 0;
#X connect 41 0 42 0;
#X connect 41 1 42 1;
#X connect 42 0 43 0;
#X connect 42 1 43 1;
#X connect 43 0 44 0;
#X connect 43 0 48 0;
#X connect 44 0 46 1;
#X connect 45 0 46 0;
#X connect 46 0 51 0;
#X connect 48 0 65 1;
#X connect 48 1 49 0;
#X connect 51 0 35 0;
#X connect 51 1 52 0;
#X connect 53 0 32 0;
#X connect 54 0 36 0;
#X connect 55 0 53 0;
#X connect 56 0 30 0;
#X connect 56 1 3 0;
#X connect 56 2 58 0;
#X connect 58 0 57 0;
#X connect 60 0 64 0;
#X connect 61 0 60 1;
#X connect 62 0 61 0;
#X connect 64 0 29 0;
#X connect 65 0 34 0;
