#N canvas 2 74 1405 970 12;
#X obj 160 595 setsize ats-track-template points;
#X obj 139 806 element ats-track-template points;
#X msg 139 722 \$2;
#X obj 11 880 set ats-point-template y freq amp;
#X obj 14 702 unpack f f f f;
#X obj 45 757 t f f;
#X obj 45 812 / 8;
#X obj 984 157 append ats-data-template x y;
#X obj 984 127 unpack f f;
#X obj 334 749 element ats-data-template tracks;
#X msg 334 721 \$1;
#X obj 984 181 pointer;
#X obj 388 567 element ats-data-template tracks;
#X msg 157 298 \$1;
#X obj 136 357 unpack f f;
#X obj 178 522 f 0;
#X obj 136 420 until;
#X msg 176 419 0;
#X obj 136 457 f 0;
#X obj 163 457 + 1;
#X obj 136 480 t b f;
#X obj 136 380 t f b;
#X obj 157 326 setsize ats-data-template tracks;
#X obj 13 566 t a a a;
#X msg 984 103 10 10;
#X text 21 509 write each point;
#X obj 13 88 route track_point track_count;
#X obj 13 6 inlet;
#X obj 1177 24 inlet;
#X text 1228 24 <- parent inlet;
#X text 65 6 <- ats info inlet;
#N canvas 2 74 403 125 ats-point-template 0;
#X obj 10 18 struct ats-point-template float freq float amp float y
;
#X restore 1204 764 pd ats-point-template;
#N canvas 2 74 484 191 ats-track-template 0;
#X obj 5 7 struct ats-track-template float x float y array points ats-point-template
;
#X text 181 60 plot args: rgbcolor \, linewith \, x \, y \, spacing
;
#X obj 6 58 plot curve points 0 1 0 0 5;
#X restore 1204 786 pd ats-track-template;
#N canvas 598 214 450 345 ats-data-template 0;
#X obj 3 81 plot tracks;
#X obj 2 12 struct ats-data-template array tracks ats-track-template
float x float y float file_type float sample_rate float track_count
float frame_count float dur_sec float amp_max float freq_max float
frame_samps float window_samps;
#X obj 4 105 drawnumber file_type 0 0 0 file_type=;
#X obj 4 127 drawnumber sample_rate 0 15 0 sample_rate=;
#X obj 4 173 drawnumber frame_count 0 45 0 frame_count=;
#X obj 4 150 drawnumber track_count 0 30 0 track_count=;
#X obj 4 195 drawnumber frame_samps 0 60 0 frame_samps=;
#X obj 4 218 drawnumber window_samps 0 75 0 window_samps=;
#X obj 5 241 drawnumber freq_max 0 90 0 freq_max=;
#X obj 5 264 drawnumber amp_max 0 105 0 amp_max=;
#X obj 5 287 drawnumber dur_sec 0 120 0 dur_sec=;
#X restore 1205 810 pd ats-data-template;
#X obj 603 847 pointer;
#X obj 603 795 r \$0-sendp;
#X obj 603 872 outlet;
#X obj 292 203 s \$0-sendp;
#X obj 984 208 s \$0-struct-ptr;
#X obj 649 819 r \$0-struct-ptr;
#X obj 555 723 r \$0-struct-ptr;
#X obj 609 539 r \$0-struct-ptr;
#X obj 378 299 r \$0-struct-ptr;
#X obj 213 162 s \$0-ftype;
#X obj 952 38 r \$0-ftype;
#X obj 952 63 t f b;
#X obj 953 268 set ats-data-template file_type;
#N canvas 210 129 1383 777 other 0;
#X obj 17 18 inlet;
#X obj 245 675 r \$0-struct-ptr;
#X obj 17 702 set ats-data-template sample_rate;
#X obj 17 43 route sample_rate frame_count dur_sec amp_max freq_max
frame_samps window_samps, f 81;
#X obj 325 621 r \$0-struct-ptr;
#X obj 97 648 set ats-data-template frame_count;
#X obj 378 559 r \$0-struct-ptr;
#X obj 458 506 r \$0-struct-ptr;
#X obj 178 586 set ats-data-template dur_sec;
#X obj 258 532 set ats-data-template amp_max;
#X obj 546 445 r \$0-struct-ptr;
#X obj 339 471 set ats-data-template freq_max;
#X obj 647 382 r \$0-struct-ptr;
#X obj 419 410 set ats-data-template frame_samps;
#X obj 735 329 r \$0-struct-ptr;
#X obj 500 356 set ats-data-template window_samps;
#X connect 0 0 3 0;
#X connect 1 0 2 1;
#X connect 3 0 2 0;
#X connect 3 1 5 0;
#X connect 3 2 8 0;
#X connect 3 3 9 0;
#X connect 3 4 11 0;
#X connect 3 5 13 0;
#X connect 3 6 15 0;
#X connect 4 0 5 1;
#X connect 6 0 8 1;
#X connect 7 0 9 1;
#X connect 10 0 11 1;
#X connect 12 0 13 1;
#X connect 14 0 15 1;
#X restore 371 167 pd other;
#X obj 113 132 t b a a a;
#X obj 176 247 set ats-data-template track_count frame_count;
#X obj 176 211 unpack f f;
#X obj 488 211 r \$0-struct-ptr;
#X obj 13 57 spigot 0;
#X obj 66 28 r \$0-haveptr;
#X obj 1177 73 t b p;
#X msg 1229 119 1;
#X obj 1229 144 s \$0-haveptr;
#X obj 213 134 route file_type dumping;
#X obj 292 173 sel 0;
#X text 286 99 send struct out when it is totally built (dumping =
0);
#X connect 1 0 3 3;
#X connect 2 0 1 0;
#X connect 4 2 5 0;
#X connect 4 3 3 2;
#X connect 5 0 6 0;
#X connect 5 1 3 1;
#X connect 6 0 3 0;
#X connect 7 0 11 0;
#X connect 8 0 7 0;
#X connect 8 1 7 1;
#X connect 9 0 1 1;
#X connect 10 0 9 0;
#X connect 11 0 38 0;
#X connect 11 0 46 1;
#X connect 12 0 0 1;
#X connect 13 0 22 0;
#X connect 14 0 21 0;
#X connect 14 1 15 1;
#X connect 15 0 0 0;
#X connect 16 0 18 0;
#X connect 17 0 18 1;
#X connect 18 0 19 0;
#X connect 18 0 20 0;
#X connect 19 0 18 1;
#X connect 20 0 15 0;
#X connect 20 1 12 0;
#X connect 21 0 16 0;
#X connect 21 1 17 0;
#X connect 23 0 4 0;
#X connect 23 1 2 0;
#X connect 23 2 10 0;
#X connect 24 0 8 0;
#X connect 26 0 23 0;
#X connect 26 1 48 0;
#X connect 26 2 57 0;
#X connect 27 0 52 0;
#X connect 28 0 54 0;
#X connect 34 0 36 0;
#X connect 35 0 34 0;
#X connect 39 0 34 1;
#X connect 40 0 9 1;
#X connect 41 0 12 1;
#X connect 42 0 22 1;
#X connect 44 0 45 0;
#X connect 45 0 46 0;
#X connect 45 1 24 0;
#X connect 48 1 14 0;
#X connect 48 2 13 0;
#X connect 48 3 50 0;
#X connect 50 0 49 0;
#X connect 50 1 49 1;
#X connect 51 0 49 2;
#X connect 52 0 26 0;
#X connect 53 0 52 1;
#X connect 54 0 55 0;
#X connect 54 1 7 2;
#X connect 55 0 56 0;
#X connect 57 0 43 0;
#X connect 57 1 58 0;
#X connect 57 2 47 0;
#X connect 58 0 37 0;
