#N canvas 2 213 1058 865 12;
#X obj 219 549 setsize ats-trace-template points;
#X obj 139 753 element ats-trace-template points;
#X msg 139 669 \$2;
#X obj 11 827 set ats-point-template y freq amp;
#X obj 14 649 unpack f f f f;
#X obj 45 704 t f f;
#X obj 45 759 / 8;
#X obj 398 352 append ats-data-template x y;
#X obj 398 307 unpack f f;
#X obj 334 696 element ats-data-template tracks;
#X msg 334 668 \$1;
#X obj 398 376 pointer;
#X obj 414 502 element ats-data-template tracks;
#X msg 294 400 \$1;
#X obj 195 311 unpack f f;
#X obj 237 476 f 0;
#X obj 195 374 until;
#X msg 235 373 0;
#X obj 195 411 f 0;
#X obj 222 411 + 1;
#X obj 195 434 t b f;
#X obj 195 334 t f b;
#X obj 294 428 setsize ats-data-template tracks;
#X obj 13 513 t a a a;
#X msg 398 283 10 10;
#X text 638 342 creat a struct and allocate tracks and points;
#X text 21 456 write each point;
#X obj 13 35 route track_point track_count;
#X obj 13 6 inlet;
#X obj 591 9 inlet;
#X text 642 9 <- parent inlet;
#X text 65 6 <- ats info inlet;
#N canvas 2 74 403 125 ats-point-template 0;
#X obj 10 18 struct ats-point-template float freq float amp float y
;
#X restore 805 9 pd ats-point-template;
#N canvas 2 74 484 191 ats-trace-template 0;
#X obj 5 7 struct ats-trace-template float x float y array points ats-point-template
;
#X text 181 60 plot args: rgbcolor \, linewith \, x \, y \, spacing
;
#X obj 6 58 plot curve points 0 1 0 0 5;
#X restore 805 31 pd ats-trace-template;
#N canvas 2 74 402 106 ats-data-template 0;
#X obj 2 12 struct ats-data-template array tracks ats-trace-template
float x float y;
#X obj 51 49 plot tracks;
#X restore 806 55 pd ats-data-template;
#X obj 629 620 pointer;
#X obj 629 589 r \$0-sendp;
#X obj 629 645 outlet;
#X obj 294 220 t a b;
#X obj 113 79 t b a a;
#X obj 113 179 s \$0-sendp;
#X connect 1 0 3 3;
#X connect 2 0 1 0;
#X connect 4 2 5 0;
#X connect 4 3 3 2;
#X connect 5 0 6 0;
#X connect 5 1 3 1;
#X connect 6 0 3 0;
#X connect 7 0 11 0;
#X connect 8 0 7 0;
#X connect 8 1 7 1;
#X connect 9 0 1 1;
#X connect 10 0 9 0;
#X connect 11 0 9 1;
#X connect 11 0 12 1;
#X connect 11 0 22 1;
#X connect 11 0 35 1;
#X connect 12 0 0 1;
#X connect 13 0 22 0;
#X connect 14 0 21 0;
#X connect 14 1 15 1;
#X connect 15 0 0 0;
#X connect 16 0 18 0;
#X connect 17 0 18 1;
#X connect 18 0 19 0;
#X connect 18 0 20 0;
#X connect 19 0 18 1;
#X connect 20 0 15 0;
#X connect 20 1 12 0;
#X connect 21 0 16 0;
#X connect 21 1 17 0;
#X connect 23 0 4 0;
#X connect 23 1 2 0;
#X connect 23 2 10 0;
#X connect 24 0 8 0;
#X connect 27 0 23 0;
#X connect 27 1 39 0;
#X connect 28 0 27 0;
#X connect 29 0 7 2;
#X connect 35 0 37 0;
#X connect 36 0 35 0;
#X connect 38 0 13 0;
#X connect 38 1 24 0;
#X connect 39 0 40 0;
#X connect 39 1 14 0;
#X connect 39 2 38 0;
