#N canvas 432 68 1173 941 12;
#X text 447 140 < - ats-struct pointer;
#X obj 375 137 pointer;
#X text 478 212 see if this voice is in range;
#X obj 11 914 outlet~;
#X obj 375 355 element ats-data-template tracks;
#X obj 70 13 inlet;
#X obj 375 324 f \$1;
#X obj 375 165 t p p;
#X obj 375 298 t b p;
#X obj 375 273 spigot 0;
#X obj 438 273 switch~ 0;
#X obj 147 468 get ats-point-template freq amp;
#X obj 102 495 get ats-point-template freq amp;
#X obj 136 375 clip 0 0;
#X obj 102 317 clip 0 0;
#X obj 155 262 r \$0-npoints;
#X obj 155 287 - 1;
#X obj 136 350 + 1;
#X obj 102 240 t f f;
#X obj 102 214 change;
#X obj 102 189 int;
#X obj 70 150 t f f;
#X obj 10 861 osc~;
#X obj 11 888 *~;
#X obj 70 532 wrap;
#X obj 70 557 t f f;
#X obj 70 607 *;
#X obj 125 662 -;
#X msg 125 637 1 \$1;
#X obj 125 711 *;
#X obj 159 711 *;
#X obj 97 607 *;
#X obj 97 758 +;
#X obj 10 785 +;
#X floatatom 176 316 5 0 0 0 - - -;
#X obj 438 216 > \$1;
#X obj 102 417 element ats-track-template points;
#X obj 147 443 element ats-track-template points;
#X obj 70 42 route pos pointer;
#X obj 438 190 get ats-data-template track_count frame_count;
#X obj 750 219 s \$0-npoints;
#X floatatom 518 244 5 0 0 0 - - -;
#X obj 516 273 s \$0-active;
#X obj 70 117 spigot 0;
#X obj 123 91 r \$0-active;
#X floatatom 132 117 5 0 0 0 - - -;
#X floatatom 146 794 5 0 0 0 - - -;
#X floatatom 81 850 5 0 0 0 - - -;
#X connect 1 0 7 0;
#X connect 4 0 37 1;
#X connect 4 0 36 1;
#X connect 5 0 38 0;
#X connect 6 0 4 0;
#X connect 7 0 9 0;
#X connect 7 1 39 0;
#X connect 8 0 6 0;
#X connect 8 1 4 1;
#X connect 9 0 8 0;
#X connect 11 0 29 1;
#X connect 11 1 30 1;
#X connect 12 0 26 1;
#X connect 12 1 31 1;
#X connect 13 0 37 0;
#X connect 14 0 36 0;
#X connect 15 0 16 0;
#X connect 16 0 14 2;
#X connect 16 0 13 2;
#X connect 16 0 34 0;
#X connect 17 0 13 0;
#X connect 18 0 14 0;
#X connect 18 1 17 0;
#X connect 19 0 18 0;
#X connect 20 0 19 0;
#X connect 21 0 24 0;
#X connect 21 1 20 0;
#X connect 22 0 23 0;
#X connect 23 0 3 0;
#X connect 24 0 25 0;
#X connect 25 0 26 0;
#X connect 25 0 31 0;
#X connect 25 1 28 0;
#X connect 26 0 33 0;
#X connect 27 0 29 0;
#X connect 27 0 30 0;
#X connect 28 0 27 0;
#X connect 29 0 33 1;
#X connect 30 0 32 1;
#X connect 31 0 32 0;
#X connect 32 0 23 1;
#X connect 32 0 46 0;
#X connect 33 0 22 0;
#X connect 33 0 47 0;
#X connect 35 0 9 1;
#X connect 35 0 10 0;
#X connect 35 0 42 0;
#X connect 36 0 12 0;
#X connect 37 0 11 0;
#X connect 38 0 43 0;
#X connect 38 1 1 0;
#X connect 39 0 35 0;
#X connect 39 0 41 0;
#X connect 39 1 40 0;
#X connect 43 0 21 0;
#X connect 44 0 43 1;
#X connect 44 0 45 0;
