#N canvas 336 72 821 970 10;
#X declare -path .;
#X obj 429 40 declare -path .;
#X obj 113 259 atsdump;
#X obj 46 58 openpanel;
#X msg 46 86 open \$1;
#X obj 46 35 bng 15 250 50 0 empty empty empty 17 7 0 10 -262144 -1
-1;
#X obj 170 258 pointer;
#X obj 113 282 ats-struct;
#X msg 113 346 all pointer \$1;
#X msg 182 197 \; pd-ats-data clear;
#N canvas 2 74 1687 1025 ats-data 0;
#X restore 430 15 pd ats-data;
#X msg 170 233 traverse pd-ats-data \, bang;
#X obj 77 529 vline~;
#X obj 67 591 clone ats-sin 100;
#X obj 113 305 t p p;
#X obj 218 345 get ats-data-template frame_count dur_sec;
#X floatatom 461 368 5 0 0 0 - - -;
#X floatatom 218 368 5 0 0 0 - - -;
#X obj 461 390 * 1000;
#X obj 47 459 pack 0 f f;
#X obj 25 405 bng 15 250 50 0 empty empty empty 17 7 0 10 -262144 -1
-1;
#X obj 192 425 hsl 200 15 0 1 0 0 empty empty empty -2 -8 0 10 -262144
-1 -1 0 1;
#X obj 189 465 *;
#X msg 189 487 \$1 30;
#X obj 80 629 clone ats-noise 25;
#X obj 66 682 +~;
#X obj 57 715 dac~;
#X obj 111 57 openpanel;
#X obj 111 34 bng 15 250 50 0 empty empty empty 17 7 0 10 -262144 -1
-1;
#X msg 20 196 help;
#X obj 155 170 t b b;
#X obj 113 143 t a b;
#X obj 48 141 t a b;
#X msg 47 482 0 \, \$2 \$3 \, 0 0 \$3;
#X msg 113 84 anal_file -c 4 -h 0.25 -g 4 -s 4 -t 2 -T 30 -S 60 -d
0.1 -w 1 -F 4 -l 100 -M 0.5 -P 0.1 \$1;
#X obj 185 607 r \$0-noisemsg;
#X obj 166 567 r \$0-sinmsg;
#X obj 122 373 s \$0-noisemsg;
#X obj 113 396 s \$0-sinmsg;
#X obj 218 390 s \$0-frames;
#X obj 461 413 s \$0-durms;
#X obj 204 442 r \$0-frames;
#X obj 75 419 r \$0-frames;
#X obj 104 437 r \$0-durms;
#X connect 1 0 6 0;
#X connect 2 0 3 0;
#X connect 3 0 31 0;
#X connect 4 0 2 0;
#X connect 5 0 6 1;
#X connect 6 0 13 0;
#X connect 7 0 36 0;
#X connect 7 0 37 0;
#X connect 10 0 5 0;
#X connect 11 0 12 0;
#X connect 11 0 23 0;
#X connect 12 0 24 0;
#X connect 13 0 7 0;
#X connect 13 1 14 0;
#X connect 14 0 16 0;
#X connect 14 1 15 0;
#X connect 15 0 17 0;
#X connect 16 0 38 0;
#X connect 17 0 39 0;
#X connect 18 0 32 0;
#X connect 19 0 18 0;
#X connect 20 0 21 0;
#X connect 21 0 22 0;
#X connect 22 0 11 0;
#X connect 23 0 24 1;
#X connect 24 0 25 0;
#X connect 24 0 25 1;
#X connect 26 0 33 0;
#X connect 27 0 26 0;
#X connect 28 0 1 0;
#X connect 29 0 10 0;
#X connect 29 1 8 0;
#X connect 30 0 1 0;
#X connect 30 1 29 0;
#X connect 31 0 1 0;
#X connect 31 1 29 0;
#X connect 32 0 11 0;
#X connect 33 0 30 0;
#X connect 34 0 23 1;
#X connect 35 0 12 1;
#X connect 40 0 21 1;
#X connect 41 0 18 1;
#X connect 42 0 18 2;
