#N struct ats-data-template array tracks ats-trace-template float x
float y;
#N struct ats-trace-template float x float y array points ats-point-template
;
#N struct ats-point-template float freq float amp float y;
#N canvas 481 89 556 325 10;
#X declare -path .;
#X obj 429 40 declare -path .;
#X obj 111 236 atsdump;
#X obj 49 100 openpanel;
#X msg 49 123 open \$1;
#X obj 49 77 bng 15 250 50 0 empty empty empty 17 7 0 10 -262144 -1
-1;
#N canvas 2 74 1030 561 ats-trace-list 0;
#X scalar ats-data-template 10 10 \; 0 0 \; 0 0 0 \; \; \;;
#X restore 430 15 pd ats-trace-list;
#X msg 111 77 plot;
#X msg 180 174 \; pd-ats-trace-list clear;
#X obj 168 235 pointer;
#X msg 168 210 traverse pd-ats-trace-list \, bang;
#X obj 111 100 t a b b;
#X obj 111 259 ats-struct;
#X connect 1 0 11 0;
#X connect 2 0 3 0;
#X connect 3 0 1 0;
#X connect 4 0 2 0;
#X connect 6 0 10 0;
#X connect 8 0 11 1;
#X connect 9 0 8 0;
#X connect 10 0 1 0;
#X connect 10 1 9 0;
#X connect 10 2 7 0;
