#N canvas 426 70 821 970 10;
#X declare -path .;
#X obj 429 40 declare -path .;
#X obj 113 259 atsdump;
#X obj 46 58 openpanel;
#X msg 46 86 open \$1;
#X obj 46 35 bng 15 250 50 0 empty empty empty 17 7 0 10 -262144 -1
-1;
#X obj 170 258 pointer;
#X obj 113 282 ats-struct;
#X msg 113 414 all pointer \$1;
#X msg 182 197 \; pd-ats-data clear;
#N canvas 2 74 1687 1025 ats-data 0;
#X restore 430 15 pd ats-data;
#X msg 170 233 traverse pd-ats-data \, bang;
#X obj 114 722 vline~;
#X obj 104 784 clone ats-sin 100;
#X obj 113 314 t p p;
#X obj 140 343 get ats-data-template frame_count dur_sec;
#X floatatom 383 366 5 0 0 0 - - -;
#X floatatom 140 366 5 0 0 0 - - -;
#X obj 383 388 * 1000;
#X obj 84 652 pack 0 f f;
#X obj 229 618 hsl 200 15 0 1 0 0 empty empty empty -2 -8 0 10 -262144
-1 -1 0 1;
#X obj 226 658 *;
#X msg 226 680 \$1 30;
#X obj 117 822 clone ats-noise 25;
#X obj 103 875 +~;
#X obj 94 908 dac~;
#X obj 111 57 openpanel;
#X obj 111 34 bng 15 250 50 0 empty empty empty 17 7 0 10 -262144 -1
-1;
#X msg 20 196 help;
#X obj 155 170 t b b;
#X obj 113 143 t a b;
#X obj 48 141 t a b;
#X msg 84 675 0 \, \$2 \$3 \, 0 0 \$3;
#X msg 113 84 anal_file -c 4 -h 0.25 -g 4 -s 4 -t 2 -T 30 -S 60 -d
0.1 -w 1 -F 4 -l 100 -M 0.5 -P 0.1 \$1;
#X obj 222 800 r \$0-noisemsg;
#X obj 203 760 r \$0-sinmsg;
#X obj 122 441 s \$0-noisemsg;
#X obj 113 464 s \$0-sinmsg;
#X obj 140 388 s \$0-frames;
#X obj 383 411 s \$0-durms;
#X obj 241 635 r \$0-frames;
#X obj 112 575 r \$0-frames;
#X obj 156 597 r \$0-durms;
#X obj 77 487 hradio 15 1 0 9 empty empty empty 0 -8 0 10 -262144 -1
-1 6;
#X obj 141 628 * 1;
#X obj 77 507 - 4;
#X obj 77 553 + 1;
#X obj 77 530 * 0.2;
#X obj 77 575 t b f;
#X floatatom 45 593 5 0 0 0 - - -;
#X obj 453 695 s \$0-sinmsg;
#X msg 453 668 all freq_mul \$1;
#X obj 456 647 hsl 128 15 0.1 2 0 0 empty empty empty -2 -8 0 10 -262144
-1 -1 0 1;
#X msg 453 620 1;
#X obj 453 797 s \$0-sinmsg;
#X obj 456 749 hsl 128 15 0.001 1 1 0 empty empty empty -2 -8 0 10
-262144 -1 -1 0 1;
#X msg 453 722 1;
#X msg 453 770 all amp_mul \$1;
#X obj 600 688 s \$0-sinmsg;
#X obj 603 640 hsl 128 15 -100 100 0 0 empty empty empty -2 -8 0 10
-262144 -1 -1 0 1;
#X msg 600 661 all freq_add \$1;
#X msg 600 613 0;
#X obj 613 133 noise~;
#X msg 639 160 3000;
#X obj 614 204 vcf~ 0.5;
#X obj 632 398 samphold~;
#X obj 631 374 noise~;
#X obj 572 441 samphold~;
#X obj 530 615 dac~;
#X obj 471 538 dac~;
#X obj 471 482 fexpr~ $x3 + ($x2 - $x3) * $x1[-4];
#X obj 622 252 phasor~ 10;
#X msg 216 722 vis 39 1;
#X connect 1 0 6 0;
#X connect 2 0 3 0;
#X connect 3 0 30 0;
#X connect 4 0 2 0;
#X connect 5 0 6 1;
#X connect 6 0 13 0;
#X connect 7 0 35 0;
#X connect 7 0 36 0;
#X connect 10 0 5 0;
#X connect 11 0 22 0;
#X connect 11 0 12 0;
#X connect 12 0 23 0;
#X connect 13 0 7 0;
#X connect 13 1 14 0;
#X connect 14 0 16 0;
#X connect 14 1 15 0;
#X connect 15 0 17 0;
#X connect 16 0 37 0;
#X connect 17 0 38 0;
#X connect 18 0 31 0;
#X connect 19 0 20 0;
#X connect 20 0 21 0;
#X connect 21 0 11 0;
#X connect 22 0 23 1;
#X connect 23 0 24 0;
#X connect 23 0 24 1;
#X connect 25 0 32 0;
#X connect 26 0 25 0;
#X connect 27 0 1 0;
#X connect 28 0 10 0;
#X connect 28 1 8 0;
#X connect 29 0 1 0;
#X connect 29 1 28 0;
#X connect 30 0 1 0;
#X connect 30 1 28 0;
#X connect 31 0 11 0;
#X connect 32 0 29 0;
#X connect 33 0 22 1;
#X connect 34 0 12 1;
#X connect 39 0 20 1;
#X connect 40 0 18 1;
#X connect 41 0 43 1;
#X connect 42 0 44 0;
#X connect 43 0 18 2;
#X connect 44 0 46 0;
#X connect 45 0 47 0;
#X connect 45 0 48 0;
#X connect 46 0 45 0;
#X connect 47 0 18 0;
#X connect 47 1 43 0;
#X connect 50 0 49 0;
#X connect 51 0 50 0;
#X connect 52 0 51 0;
#X connect 54 0 56 0;
#X connect 55 0 54 0;
#X connect 56 0 53 0;
#X connect 58 0 59 0;
#X connect 59 0 57 0;
#X connect 60 0 58 0;
#X connect 61 0 63 0;
#X connect 62 0 63 1;
#X connect 64 0 66 0;
#X connect 64 0 69 2;
#X connect 65 0 64 0;
#X connect 66 0 69 1;
#X connect 70 0 64 1;
#X connect 70 0 66 1;
#X connect 70 0 69 0;
#X connect 71 0 12 1;
