#N canvas 121 277 904 989 10;
#X declare -lib ats;
#X obj 115 124 openpanel;
#X msg 115 152 open \$1;
#X obj 115 101 bng 15 250 50 0 empty empty load_ats_data_file 17 7
0 10 -4034 -1 -1;
#X obj 568 207 hsl 200 15 0 1 0 0 empty empty direct_time_play -2 -8
0 10 -4034 -1 -1 6200 1;
#X obj 115 657 dac~;
#X obj 526 171 hradio 15 1 0 9 empty empty play_at_rate 0 -8 0 10 -4034
-1 -1 1;
#X obj 458 718 hsl 128 15 0.1 2 0 0 empty empty all_freq_mul -2 -8
0 10 -204800 -1 -1 8016 1;
#X msg 455 684 1;
#X obj 747 718 hsl 128 15 0 1 0 0 empty empty all_(sines)_amp_mul -2
-8 0 10 -204800 -1 -1 6100 1;
#X msg 744 688 1;
#X obj 605 718 hsl 128 15 -100 100 0 0 empty empty all_freq_add -2
-8 0 10 -204800 -1 -1 1850 1;
#X msg 602 684 0;
#X obj 608 888 hsl 128 15 0.001 1 0 0 empty empty all_noise_bandwidth_scale
-2 -8 0 10 -204800 -1 -1 12700 1;
#X msg 605 855 0.1;
#X msg 715 688 0;
#X obj 455 611 loadbang;
#X obj 455 805 loadbang;
#X obj 455 766 s \$0-synth;
#X obj 602 766 s \$0-synth;
#X obj 605 936 s \$0-synth;
#X obj 744 766 s \$0-synth;
#X obj 458 890 hsl 128 15 0 10 0 0 empty empty all_noise_amp_mul -2
-8 0 10 -204800 -1 -1 12700 1;
#X msg 455 852 1;
#X msg 426 852 0;
#X obj 455 938 s \$0-synth;
#X obj 758 30 declare -lib ats;
#X obj 114 267 ats/data;
#X obj 115 521 ats/sinnoi~ 50;
#X obj 159 295 route dur_sec;
#X obj 159 316 s \$0-durs;
#X obj 127 194 bng 15 250 50 0 empty empty re-send_data 17 7 0 10 -4034
-1 -1;
#X obj 138 485 r \$0-synth;
#X msg 744 739 amp_mul all \$1;
#X msg 455 911 noise_amp_mul all \$1;
#X msg 602 739 freq_add all \$1;
#X msg 455 739 freq_mul all \$1;
#X msg 605 909 noise_bw_scale all \$1;
#X obj 455 366 hsl 128 15 0 40 0 0 empty empty partial_offset_(0_based)
-2 -8 0 10 -204786 -1 -1 0 1;
#X obj 452 479 s \$0-synth;
#X obj 452 386 int;
#X obj 452 409 change;
#X floatatom 466 433 5 0 0 0 - - -;
#X msg 452 452 offset \$1;
#X obj 604 367 hsl 128 15 1 10 0 0 empty empty partial_increment -2
-8 0 10 -204786 -1 -1 0 1;
#X obj 601 480 s \$0-synth;
#X obj 601 387 int;
#X obj 601 410 change;
#X floatatom 615 434 5 0 0 0 - - -;
#X msg 601 453 incr \$1;
#X obj 747 367 hsl 128 15 1 50 0 0 empty empty partial_limit -2 -8
0 10 -204786 -1 -1 12700 1;
#X obj 744 480 s \$0-synth;
#X obj 744 387 int;
#X obj 744 410 change;
#X floatatom 758 434 5 0 0 0 - - -;
#X msg 744 453 limit \$1;
#N canvas 0 23 395 432 time 0;
#X obj 120 289 vline~;
#X obj 90 219 pack 0 f f;
#X obj 232 225 *;
#X msg 232 247 \$1 30;
#X obj 147 195 * 1;
#X obj 63 73 - 4;
#X obj 63 119 + 1;
#X obj 63 96 * 0.2;
#X obj 63 141 t b f;
#X floatatom 31 159 5 0 0 0 - - -;
#X obj 118 141 r \$0-durs;
#X obj 162 173 * 1000;
#X obj 247 202 r \$0-durs;
#X msg 90 242 0 \, \$2 \$3;
#X obj 64 27 inlet;
#X obj 232 27 inlet;
#X obj 120 338 outlet~;
#X connect 0 0 16 0;
#X connect 1 0 13 0;
#X connect 2 0 3 0;
#X connect 3 0 0 0;
#X connect 4 0 1 2;
#X connect 5 0 7 0;
#X connect 6 0 8 0;
#X connect 6 0 9 0;
#X connect 7 0 6 0;
#X connect 8 0 1 0;
#X connect 8 1 4 0;
#X connect 10 0 1 1;
#X connect 10 0 11 0;
#X connect 11 0 4 1;
#X connect 12 0 2 1;
#X connect 13 0 0 0;
#X connect 14 0 5 0;
#X connect 15 0 2 0;
#X restore 526 233 pd time;
#X obj 526 258 send~ \$0-time;
#X obj 127 464 receive~ \$0-time;
#X text 530 600 sines resynthesis parameters;
#X text 547 801 noise resynthesis parameters;
#X text 456 540 SYNTHSIS PARAMETERS;
#X text 453 555 these can be applied to individal partials or "all"
to apply to an individual partial \, indicate the partial index (0
based) instead of "all";
#X text 453 316 PARTIAL SELECTION PARAMETERS \, will cause clicks;
#X obj 226 522 ats/sinnoi~ 50;
#X obj 238 465 receive~ \$0-time;
#X obj 250 577 hsl 128 15 0 1 0 0 empty empty hear_only_time_transformed
-2 -8 0 10 -4034 -1 -1 12700 1;
#X obj 226 600 *~ 0;
#X connect 0 0 1 0;
#X connect 1 0 26 0;
#X connect 2 0 0 0;
#X connect 3 0 55 1;
#X connect 5 0 55 0;
#X connect 6 0 35 0;
#X connect 7 0 6 0;
#X connect 8 0 32 0;
#X connect 9 0 8 0;
#X connect 10 0 34 0;
#X connect 11 0 10 0;
#X connect 12 0 36 0;
#X connect 13 0 12 0;
#X connect 14 0 8 0;
#X connect 15 0 7 0;
#X connect 15 0 11 0;
#X connect 15 0 9 0;
#X connect 16 0 22 0;
#X connect 16 0 13 0;
#X connect 21 0 33 0;
#X connect 22 0 21 0;
#X connect 23 0 21 0;
#X connect 26 0 27 0;
#X connect 26 0 63 0;
#X connect 26 1 28 0;
#X connect 27 0 4 0;
#X connect 28 0 29 0;
#X connect 30 0 26 0;
#X connect 31 0 27 0;
#X connect 32 0 20 0;
#X connect 33 0 24 0;
#X connect 34 0 18 0;
#X connect 35 0 17 0;
#X connect 36 0 19 0;
#X connect 37 0 39 0;
#X connect 39 0 40 0;
#X connect 40 0 41 0;
#X connect 40 0 42 0;
#X connect 42 0 38 0;
#X connect 43 0 45 0;
#X connect 45 0 46 0;
#X connect 46 0 47 0;
#X connect 46 0 48 0;
#X connect 48 0 44 0;
#X connect 49 0 51 0;
#X connect 51 0 52 0;
#X connect 52 0 53 0;
#X connect 52 0 54 0;
#X connect 54 0 50 0;
#X connect 55 0 56 0;
#X connect 57 0 27 0;
#X connect 63 0 66 0;
#X connect 64 0 63 0;
#X connect 65 0 66 1;
#X connect 66 0 4 1;
