#N canvas 2 74 1916 1004 10;
#X declare -lib ats;
#X obj 46 58 openpanel;
#X msg 46 86 open \$1;
#X obj 46 35 bng 15 250 50 0 empty empty empty 17 7 0 10 -262144 -1
-1;
#N canvas 2 74 1687 1025 ats-data 0;
#X restore 430 15 pd ats-data;
#X obj 452 427 vline~;
#X obj 422 357 pack 0 f f;
#X obj 567 323 hsl 200 15 0 1 0 0 empty empty empty -2 -8 0 10 -262144
-1 -1 800 1;
#X obj 564 363 *;
#X msg 564 385 \$1 30;
#X obj 107 648 dac~;
#X obj 111 57 openpanel;
#X obj 111 34 bng 15 250 50 0 empty empty empty 17 7 0 10 -262144 -1
-1;
#X msg 20 196 help;
#X obj 113 143 t a b;
#X obj 48 141 t a b;
#X msg 113 84 anal_file -c 4 -h 0.25 -g 4 -s 4 -t 2 -T 30 -S 60 -d
0.1 -w 1 -F 4 -l 100 -M 0.5 -P 0.1 \$1;
#X obj 395 191 hradio 15 1 0 9 empty empty empty 0 -8 0 10 -262144
-1 -1 4;
#X obj 479 333 * 1;
#X obj 395 211 - 4;
#X obj 395 257 + 1;
#X obj 395 234 * 0.2;
#X obj 395 279 t b f;
#X floatatom 363 297 5 0 0 0 - - -;
#X obj 456 647 hsl 128 15 0.1 2 0 0 empty empty empty -2 -8 0 10 -262144
-1 -1 6016 1;
#X msg 453 620 1;
#X obj 456 819 hsl 128 15 0 1 0 0 empty empty empty -2 -8 0 10 -262144
-1 -1 12700 1;
#X msg 453 792 1;
#X obj 603 640 hsl 128 15 -100 100 0 0 empty empty empty -2 -8 0 10
-262144 -1 -1 6350 1;
#X msg 600 613 0;
#X obj 756 641 hsl 128 15 0.001 1 0 0 empty empty empty -2 -8 0 10
-262144 -1 -1 1259 1;
#X msg 753 614 0.1;
#X msg 484 792 0;
#X obj 622 535 loadbang;
#X obj 453 734 loadbang;
#X obj 453 695 s \$0-synth;
#X obj 600 688 s \$0-synth;
#X obj 753 689 s \$0-synth;
#X obj 453 867 s \$0-synth;
#X obj 603 817 hsl 128 15 0 10 0 0 empty empty empty -2 -8 0 10 -262144
-1 -1 1270 1;
#X msg 600 790 1;
#X msg 631 790 0;
#X obj 600 865 s \$0-synth;
#X obj 429 40 declare -lib ats;
#X obj 114 267 ats/data;
#X obj 160 339 print;
#X obj 117 524 ats/sinnoi~ 50;
#X obj 131 447 catch~ \$0-time;
#X obj 452 476 throw~ \$0-time;
#X obj 214 339 route dur_sec;
#X obj 214 360 s \$0-durs;
#X obj 450 279 r \$0-durs;
#X obj 494 311 * 1000;
#X obj 579 340 r \$0-durs;
#X msg 422 380 0 \, \$2 \$3;
#X obj 139 217 bng 15 250 50 0 empty empty empty 17 7 0 10 -262144
-1 -1;
#X obj 157 489 r \$0-synth;
#X msg 453 840 amp_mul all \$1;
#X msg 600 838 noise_amp_mul all \$1;
#X msg 600 661 freq_add all \$1;
#X msg 453 668 freq_mul all \$1;
#X msg 753 662 noise_bw_scale all \$1;
#X obj 984 401 hsl 128 15 0 40 0 0 empty empty empty -2 -8 0 10 -262144
-1 -1 2800 1;
#X obj 981 514 s \$0-synth;
#X obj 981 421 int;
#X obj 981 444 change;
#X floatatom 995 468 5 0 0 0 - - -;
#X msg 981 487 offset \$1;
#X obj 1127 401 hsl 128 15 1 10 0 0 empty empty empty -2 -8 0 10 -262144
-1 -1 0 1;
#X obj 1124 514 s \$0-synth;
#X obj 1124 421 int;
#X obj 1124 444 change;
#X floatatom 1138 468 5 0 0 0 - - -;
#X msg 1124 487 incr \$1;
#X obj 1270 401 hsl 128 15 1 50 0 0 empty empty empty -2 -8 0 10 -262144
-1 -1 0 1;
#X obj 1267 514 s \$0-synth;
#X obj 1267 421 int;
#X obj 1267 444 change;
#X floatatom 1281 468 5 0 0 0 - - -;
#X msg 1267 487 limit \$1;
#X connect 0 0 1 0;
#X connect 1 0 14 0;
#X connect 2 0 0 0;
#X connect 4 0 47 0;
#X connect 5 0 53 0;
#X connect 6 0 7 0;
#X connect 7 0 8 0;
#X connect 8 0 4 0;
#X connect 10 0 15 0;
#X connect 11 0 10 0;
#X connect 12 0 43 0;
#X connect 13 0 43 0;
#X connect 14 0 43 0;
#X connect 15 0 13 0;
#X connect 16 0 18 0;
#X connect 17 0 5 2;
#X connect 18 0 20 0;
#X connect 19 0 21 0;
#X connect 19 0 22 0;
#X connect 20 0 19 0;
#X connect 21 0 5 0;
#X connect 21 1 17 0;
#X connect 23 0 59 0;
#X connect 24 0 23 0;
#X connect 25 0 56 0;
#X connect 26 0 25 0;
#X connect 27 0 58 0;
#X connect 28 0 27 0;
#X connect 29 0 60 0;
#X connect 30 0 29 0;
#X connect 31 0 25 0;
#X connect 32 0 24 0;
#X connect 32 0 28 0;
#X connect 32 0 30 0;
#X connect 33 0 26 0;
#X connect 33 0 39 0;
#X connect 38 0 57 0;
#X connect 39 0 38 0;
#X connect 40 0 38 0;
#X connect 43 0 45 0;
#X connect 43 1 44 0;
#X connect 43 1 48 0;
#X connect 45 0 9 0;
#X connect 45 0 9 1;
#X connect 46 0 45 0;
#X connect 48 0 49 0;
#X connect 50 0 5 1;
#X connect 50 0 51 0;
#X connect 51 0 17 1;
#X connect 52 0 7 1;
#X connect 53 0 4 0;
#X connect 54 0 43 0;
#X connect 55 0 45 0;
#X connect 56 0 37 0;
#X connect 57 0 41 0;
#X connect 58 0 35 0;
#X connect 59 0 34 0;
#X connect 60 0 36 0;
#X connect 61 0 63 0;
#X connect 63 0 64 0;
#X connect 64 0 65 0;
#X connect 64 0 66 0;
#X connect 66 0 62 0;
#X connect 67 0 69 0;
#X connect 69 0 70 0;
#X connect 70 0 71 0;
#X connect 70 0 72 0;
#X connect 72 0 68 0;
#X connect 73 0 75 0;
#X connect 75 0 76 0;
#X connect 76 0 77 0;
#X connect 76 0 78 0;
#X connect 78 0 74 0;
