#N canvas 957 74 961 966 10;
#X declare -path .;
#X obj 429 40 declare -path .;
#X obj 46 58 openpanel;
#X msg 46 86 open \$1;
#X obj 46 35 bng 15 250 50 0 empty empty empty 17 7 0 10 -262144 -1
-1;
#X obj 170 258 pointer;
#X obj 113 282 ats-struct;
#X msg 113 414 all pointer \$1;
#X msg 182 197 \; pd-ats-data clear;
#N canvas 2 74 1687 1025 ats-data 0;
#X restore 430 15 pd ats-data;
#X msg 170 233 traverse pd-ats-data \, bang;
#X obj 114 722 vline~;
#X obj 104 784 clone ats-sin-noi 100;
#X obj 113 314 t p p;
#X obj 140 343 get ats-data-template frame_count dur_sec;
#X floatatom 383 366 5 0 0 0 - - -;
#X floatatom 140 366 5 0 0 0 - - -;
#X obj 383 388 * 1000;
#X obj 84 652 pack 0 f f;
#X obj 229 618 hsl 200 15 0 1 0 0 empty empty empty -2 -8 0 10 -262144
-1 -1 0 1;
#X obj 226 658 *;
#X msg 226 680 \$1 30;
#X obj 94 908 dac~;
#X obj 111 57 openpanel;
#X obj 111 34 bng 15 250 50 0 empty empty empty 17 7 0 10 -262144 -1
-1;
#X msg 20 196 help;
#X obj 155 170 t b b;
#X obj 113 143 t a b;
#X obj 48 141 t a b;
#X msg 84 675 0 \, \$2 \$3 \, 0 0 \$3;
#X msg 113 84 anal_file -c 4 -h 0.25 -g 4 -s 4 -t 2 -T 30 -S 60 -d
0.1 -w 1 -F 4 -l 100 -M 0.5 -P 0.1 \$1;
#X obj 140 388 s \$0-frames;
#X obj 383 411 s \$0-durms;
#X obj 241 635 r \$0-frames;
#X obj 118 574 r \$0-frames;
#X obj 156 597 r \$0-durms;
#X obj 77 487 hradio 15 1 0 9 empty empty empty 0 -8 0 10 -262144 -1
-1 5;
#X obj 141 628 * 1;
#X obj 77 507 - 4;
#X obj 77 553 + 1;
#X obj 77 530 * 0.2;
#X obj 77 575 t b f;
#X floatatom 45 593 5 0 0 0 - - -;
#X msg 453 668 all freq_mul \$1;
#X obj 456 647 hsl 128 15 0.1 2 0 0 empty empty empty -2 -8 0 10 -262144
-1 -1 6016 1;
#X msg 453 620 1;
#X obj 456 819 hsl 128 15 0 1 0 0 empty empty empty -2 -8 0 10 -262144
-1 -1 12700 1;
#X msg 453 792 1;
#X obj 603 640 hsl 128 15 -100 100 0 0 empty empty empty -2 -8 0 10
-262144 -1 -1 6350 1;
#X msg 600 661 all freq_add \$1;
#X msg 600 613 0;
#X msg 259 728 vis 39 1;
#X obj 756 641 hsl 128 15 0.001 1 0 0 empty empty empty -2 -8 0 10
-262144 -1 -1 1259 1;
#X msg 753 662 all bw_scale \$1;
#X msg 753 614 0.1;
#X msg 484 792 0;
#X obj 622 535 loadbang;
#X obj 453 734 loadbang;
#X obj 113 442 s \$0-synth;
#X obj 191 728 r \$0-synth;
#X obj 453 695 s \$0-synth;
#X obj 600 688 s \$0-synth;
#X obj 753 689 s \$0-synth;
#X obj 453 867 s \$0-synth;
#X obj 603 817 hsl 128 15 0 10 0 0 empty empty empty -2 -8 0 10 -262144
-1 -1 1270 1;
#X msg 600 790 1;
#X msg 631 790 0;
#X obj 600 865 s \$0-synth;
#X msg 600 838 all noise_amp \$1;
#X msg 453 840 all sine_amp \$1;
#X obj 113 259 atsdata;
#X connect 1 0 2 0;
#X connect 2 0 27 0;
#X connect 3 0 1 0;
#X connect 4 0 5 1;
#X connect 5 0 12 0;
#X connect 6 0 57 0;
#X connect 9 0 4 0;
#X connect 10 0 11 0;
#X connect 11 0 21 0;
#X connect 11 0 21 1;
#X connect 12 0 6 0;
#X connect 12 1 13 0;
#X connect 13 0 15 0;
#X connect 13 1 14 0;
#X connect 14 0 16 0;
#X connect 15 0 30 0;
#X connect 16 0 31 0;
#X connect 17 0 28 0;
#X connect 18 0 19 0;
#X connect 19 0 20 0;
#X connect 20 0 10 0;
#X connect 22 0 29 0;
#X connect 23 0 22 0;
#X connect 24 0 69 0;
#X connect 25 0 9 0;
#X connect 25 1 7 0;
#X connect 26 0 69 0;
#X connect 26 1 25 0;
#X connect 27 0 69 0;
#X connect 27 1 25 0;
#X connect 28 0 10 0;
#X connect 29 0 26 0;
#X connect 32 0 19 1;
#X connect 33 0 17 1;
#X connect 34 0 36 1;
#X connect 35 0 37 0;
#X connect 36 0 17 2;
#X connect 37 0 39 0;
#X connect 38 0 40 0;
#X connect 38 0 41 0;
#X connect 39 0 38 0;
#X connect 40 0 17 0;
#X connect 40 1 36 0;
#X connect 42 0 59 0;
#X connect 43 0 42 0;
#X connect 44 0 43 0;
#X connect 45 0 68 0;
#X connect 46 0 45 0;
#X connect 47 0 48 0;
#X connect 48 0 60 0;
#X connect 49 0 47 0;
#X connect 50 0 11 1;
#X connect 51 0 52 0;
#X connect 52 0 61 0;
#X connect 53 0 51 0;
#X connect 54 0 45 0;
#X connect 55 0 44 0;
#X connect 55 0 49 0;
#X connect 55 0 53 0;
#X connect 56 0 46 0;
#X connect 56 0 64 0;
#X connect 58 0 11 1;
#X connect 63 0 67 0;
#X connect 64 0 63 0;
#X connect 65 0 63 0;
#X connect 67 0 66 0;
#X connect 68 0 62 0;
#X connect 69 0 5 0;
