#N canvas 626 257 613 771 12;
#X obj 243 249 samphold~;
#X obj 249 221 noise~;
#X obj 175 298 samphold~;
#X obj 92 108 metro 100;
#X obj 92 20 tgl 15 0 empty empty empty 17 7 0 10 -262144 -1 -1 0 1
;
#X obj 188 351 snapshot~;
#X floatatom 188 374 5 0 0 0 - - -;
#X obj 298 381 snapshot~;
#X obj 125 503 snapshot~;
#X obj 179 109 phasor~ 1;
#X obj 219 538 hsl 128 15 -1 1 0 0 empty empty empty -2 -8 0 10 -262144
-1 -1 0 1;
#X obj 219 517 hsl 128 15 -1 1 0 0 empty empty empty -2 -8 0 10 -262144
-1 -1 0 1;
#X obj 219 558 hsl 128 15 -1 1 0 0 empty empty empty -2 -8 0 10 -262144
-1 -1 0 1;
#X obj 74 557 outlet~;
#X obj 180 16 inlet~;
#X obj 74 399 expr~ $v2 + ($v3 - $v2) * $v1;
#X text 21 19 visualize;
#X text 212 78 offset for visualization with no connection;
#X obj 92 133 send \$0-v;
#X obj 298 351 r \$0-v;
#X obj 125 476 r \$0-v;
#X obj 202 325 r \$0-v;
#X obj 179 78 +~ 0;
#N canvas 0 23 542 300 writer 0;
#X obj 13 12 inlet~;
#X obj 14 120 outlet~;
#X obj 21 47 delwrite~ \$0-del 1;
#X text 111 17 in subpatch to assert dsp order. see G05.execution.order.pd
;
#X connect 0 0 2 0;
#X connect 0 0 1 0;
#X restore 303 190 pd writer;
#N canvas 0 23 494 300 reader 1;
#X obj 13 13 inlet~;
#X obj 140 178 delread~ \$0-del;
#X obj 140 203 outlet~;
#X obj 160 124 samplerate~;
#X obj 142 43 loadbang;
#X text 218 43 1 sample \, in milliseconds;
#X obj 142 151 /;
#X msg 142 97 1000, f 5;
#X obj 142 69 t b b;
#X text 69 14 inlet for assering dsp order \, see G05.execution.order.pd
;
#X connect 1 0 2 0;
#X connect 3 0 6 1;
#X connect 4 0 8 0;
#X connect 6 0 1 0;
#X connect 7 0 6 0;
#X connect 8 0 7 0;
#X connect 8 1 3 0;
#X restore 303 214 pd reader;
#X connect 0 0 2 0;
#X connect 0 0 7 0;
#X connect 0 0 15 2;
#X connect 1 0 0 0;
#X connect 2 0 5 0;
#X connect 2 0 15 1;
#X connect 3 0 18 0;
#X connect 4 0 3 0;
#X connect 4 0 22 1;
#X connect 5 0 6 0;
#X connect 6 0 11 0;
#X connect 7 0 12 0;
#X connect 8 0 10 0;
#X connect 9 0 2 1;
#X connect 9 0 15 0;
#X connect 9 0 23 0;
#X connect 14 0 22 0;
#X connect 15 0 8 0;
#X connect 15 0 13 0;
#X connect 19 0 7 0;
#X connect 20 0 8 0;
#X connect 21 0 5 0;
#X connect 22 0 9 0;
#X connect 23 0 24 0;
#X connect 24 0 0 1;
